<svg height="639pt" viewBox="-20 -120 639.9996 639" width="639pt" xmlns="http://www.w3.org/2000/svg"><path d="m589.992188 373.828125c-11.113282.28125-22.054688-2.785156-31.402344-8.800781-25.359375-14.933594-56.832032-14.933594-82.195313 0-19.324219 11.730468-43.574219 11.730468-62.898437 0-25.367188-14.933594-56.835938-14.933594-82.203125 0-19.285157 11.734375-43.507813 11.734375-62.796875 0-12.347656-7.589844-26.609375-11.476563-41.097656-11.199219-14.492188-.277344-28.753907 3.609375-41.101563 11.199219-9.347656 6.015625-20.289063 9.082031-31.394531 8.800781-11.113282.253906-22.042969-2.8125-31.402344-8.800781-12.304688-7.605469-26.542969-11.496094-41-11.199219-14.488281-.277344-28.753906 3.609375-41.097656 11.199219-9.355469 6.003906-20.292969 9.070312-31.402344 8.800781-5.523438 0-10 4.476563-10 10s4.476562 10 10 10c14.488281.273437 28.753906-3.613281 41.097656-11.203125 9.347656-6.019531 20.289063-9.085938 31.402344-8.796875 11.105469-.269531 22.042969 2.792969 31.398438 8.796875 12.300781 7.609375 26.539062 11.496094 41.003906 11.203125 14.484375.292969 28.757812-3.597656 41.097656-11.203125 9.347656-6.003906 20.285156-9.066406 31.398438-8.796875 11.109374-.289063 22.050781 2.777344 31.398437 8.796875 25.363281 14.9375 56.832031 14.9375 82.199219 0 19.289062-11.730469 43.511718-11.730469 62.796875 0 25.367187 14.9375 56.835937 14.9375 82.203125 0 19.324218-11.730469 43.574218-11.730469 62.898437 0 12.34375 7.589844 26.609375 11.476562 41.097657 11.203125 5.523437 0 10-4.476563 10-10s-4.476563-10-10-10zm0 0"/><path d="m10 353.828125c14.460938.328125 28.710938-3.5625 41-11.199219 9.394531-5.992187 20.363281-9.054687 31.5-8.800781 11.113281-.289063 22.054688 2.777344 31.398438 8.800781.117187.078125.261718.117188.402343.097656 12.152344 7.589844 26.269531 11.449219 40.601563 11.101563 14.527344.277344 28.835937-3.640625 41.195312-11.296875 9.335938-5.953125 20.234375-8.984375 31.300782-8.703125 11.171874-.28125 22.179687 2.777344 31.597656 8.800781 12.25 7.636719 26.46875 11.53125 40.902344 11.199219 14.53125.277344 28.835937-3.640625 41.195312-11.296875 19.367188-11.636719 43.574219-11.597656 62.898438.097656 12.253906 7.636719 26.472656 11.53125 40.90625 11.199219 14.484374.273437 28.746093-3.613281 41.097656-11.199219 9.394531-5.992187 20.359375-9.054687 31.496094-8.800781 2.070312-.003906 4.140624.09375 6.203124.296875 8.96875.722656 17.625 3.640625 25.199219 8.503906 12.339844 7.601563 26.605469 11.492188 41.097657 11.199219 5.523437 0 10-4.476563 10-10s-4.476563-10-10-10c-11.140626.265625-22.109376-2.796875-31.5-8.796875-6.09375-3.625-12.605469-6.480469-19.398438-8.503906-4.476562-1.238282-9.066406-2.042969-13.699219-2.402344-2.265625-.199219-4.667969-.296875-7.203125-.296875h-.699218c-14.484376-.277344-28.753907 3.609375-41.097657 11.203125-19.359375 11.726562-43.640625 11.726562-63 0-25.292969-14.9375-56.703125-14.9375-81.996093 0-19.363282 11.726562-43.644532 11.726562-63.003907 0-12.285156-7.636719-26.53125-11.53125-40.996093-11.203125-14.464844-.328125-28.710938 3.566406-41 11.203125-9.398438 5.984375-20.359376 9.046875-31.496094 8.796875-11.144532.265625-22.117188-2.796875-31.503906-8.796875-12.257813-7.628906-26.464844-11.519531-40.898438-11.203125-3.78125-.039063-7.554688.195313-11.300781.699219-1.199219.101562-2.296875.300781-3.402344.503906-.671875.070312-1.34375.203125-1.996094.394531-1 .199219-1.898437.398438-2.804687.601563-.90625.183594-1.808594.417968-2.699219.703125-2.421875.664062-4.792969 1.496093-7.097656 2.5-1.433594.550781-2.839844 1.183593-4.199219 1.898437-.585938.222656-1.152344.492188-1.699219.800782-2.101562 1.097656-4.101562 2.097656-6.003906 3.199218-3.925781 2.304688-8.039063 4.277344-12.296875 5.898438-6.128906 1.996094-12.554688 2.941406-19 2.800781-5.523438 0-10 4.476563-10 10s4.476562 10 10 10zm0 0"/><path d="m29 311.027344c4.257812-1.621094 8.371094-3.59375 12.296875-5.898438 1.902344-1.101562 3.902344-2.101562 6.003906-3.199218.546875-.308594 1.113281-.578126 1.699219-.800782 1.359375-.714844 2.765625-1.347656 4.199219-1.898437 2.304687-1.003907 4.675781-1.835938 7.097656-2.5.890625-.285157 1.792969-.519531 2.699219-.703125.90625-.203125 1.804687-.402344 2.804687-.601563.652344-.191406 1.324219-.324219 1.996094-.394531 1.105469-.203125 2.203125-.402344 3.402344-.503906 3.746093-.503906 7.519531-.738282 11.300781-.699219 14.433594-.316406 28.640625 3.574219 40.898438 11.203125 9.386718 6 20.359374 9.0625 31.503906 8.796875 11.136718.25 22.097656-2.8125 31.496094-8.796875 12.289062-7.636719 26.535156-11.53125 41-11.203125 14.464843-.328125 28.710937 3.566406 40.996093 11.203125 19.359375 11.726562 43.640625 11.726562 63.003907 0 25.292968-14.9375 56.703124-14.9375 81.996093 0 19.359375 11.726562 43.640625 11.726562 63 0 12.34375-7.59375 26.613281-11.480469 41.097657-11.203125h.699218c2.5 0 4.902344.097656 7.203125.296875 4.632813.359375 9.222657 1.164062 13.699219 2.402344l60-128.496094c1.421875-3.113281 1.15625-6.730469-.703125-9.601562-1.816406-2.886719-4.988281-4.625-8.398437-4.597657h-139.996094c-2.167969-.015625-4.273438.6875-6.003906 1.996094l-37.296876 28.003906h-396.695312c-3.078125-.019531-5.992188 1.378907-7.902344 3.796875-1.863281 2.453125-2.523437 5.609375-1.800781 8.597656zm0 0"/><path d="m289.296875 60.226562c-1.46875-3.855468-5.175781-6.398437-9.300781-6.394531h-120v-50c0-5.523437-4.476563-10-9.996094-10h-40c-5.523438 0-10 4.476563-10 10v50h-20c-5.523438 0-10 4.476563-10 10v100h259.105469zm-154.296875 73.605469c-13.808594 0-25-11.199219-25-25 0-13.808593 11.191406-25 25-25s24.996094 11.191407 24.996094 25c0 13.800781-11.1875 25-24.996094 25zm99.996094 0c-13.808594 0-25-11.199219-25-25 0-13.808593 11.191406-25 25-25s25 11.191407 25 25c0 13.800781-11.191406 25-25 25zm0 0"/></svg>