<svg xmlns="http://www.w3.org/2000/svg" viewBox="0 0 50 50"><path d="M 24 10 L 24 16 L 20 16 C 19.96875 16 19.9375 16 19.90625 16 C 19.875 16 19.84375 16 19.8125 16 C 19.335938 16.089844 18.992188 16.511719 19 17 L 19 25 L 16 25 L 16 22 C 16 21.449219 15.550781 21 15 21 L 9 21 C 8.96875 21 8.9375 21 8.90625 21 C 8.390625 21.046875 7.996094 21.480469 8 22 L 8 22.6875 L 3.03125 22 L 2.78125 24 L 8 24.6875 L 8 25.8125 C 8 25.84375 8 25.875 8 25.90625 L 8 26 C 8 26.03125 8 26.0625 8 26.09375 L 8 31 L 1 31 C 0.96875 31 0.9375 31 0.90625 31 C 0.875 31 0.84375 31 0.8125 31 C 0.324219 31.09375 -0.0234375 31.53125 0 32.03125 C 0.113281 34.726563 1.550781 37.742188 2.90625 40.1875 C 3.855469 41.902344 4.617188 43.046875 5.09375 43.75 C 4.390625 43.894531 3.714844 44 3.1875 44 C 2.582031 44 2.039063 43.90625 1.40625 43.90625 C 1.046875 43.902344 0.710938 44.089844 0.527344 44.402344 C 0.347656 44.714844 0.347656 45.097656 0.527344 45.410156 C 0.710938 45.722656 1.046875 45.910156 1.40625 45.90625 C 1.773438 45.90625 2.390625 46 3.1875 46 C 4.691406 46 6.875 45.550781 8.6875 44.375 C 10.503906 45.566406 12.675781 46 14.1875 46 C 15.691406 46 17.875 45.550781 19.6875 44.375 C 21.503906 45.566406 23.675781 46 25.1875 46 C 26.691406 46 28.875 45.550781 30.6875 44.375 C 32.503906 45.566406 34.675781 46 36.1875 46 C 37.691406 46 39.875 45.550781 41.6875 44.375 C 42.261719 44.75 42.855469 45.046875 43.46875 45.28125 C 43.625 45.394531 43.808594 45.457031 44 45.46875 C 45.148438 45.84375 46.289063 46 47.1875 46 C 47.984375 46 48.726563 45.882813 49.375 45.625 C 49.742188 45.515625 50.011719 45.210938 50.078125 44.835938 C 50.140625 44.460938 49.988281 44.082031 49.679688 43.855469 C 49.371094 43.632813 48.960938 43.605469 48.625 43.78125 C 48.273438 43.921875 47.792969 44 47.1875 44 C 46.652344 44 45.960938 43.902344 45.25 43.75 C 46.332031 38.699219 49.875 32.5 49.875 32.5 C 50.054688 32.1875 50.054688 31.804688 49.871094 31.496094 C 49.691406 31.1875 49.359375 30.996094 49 31 L 42 31 L 42 29.03125 L 49.53125 26.4375 L 48.875 24.5625 L 42 26.9375 L 42 26 C 42 25.449219 41.550781 25 41 25 L 31 25 L 31 17 C 31 16.449219 30.550781 16 30 16 L 26 16 L 26 10 Z M 21 18 L 29 18 L 29 25 L 21 25 Z M 10 23 L 14 23 L 14 25 L 10 25 Z M 10 27 L 40 27 L 40 31 L 10 31 Z M 2.25 33 L 47.34375 33 C 46.414063 34.683594 44.28125 38.769531 43.34375 43.15625 C 42.980469 42.980469 42.632813 42.765625 42.34375 42.53125 C 41.972656 42.222656 41.433594 42.222656 41.0625 42.53125 C 39.765625 43.585938 37.507813 44 36.1875 44 C 34.867188 44 32.640625 43.585938 31.34375 42.53125 C 30.972656 42.222656 30.433594 42.222656 30.0625 42.53125 C 28.765625 43.585938 26.507813 44 25.1875 44 C 23.867188 44 21.640625 43.585938 20.34375 42.53125 C 19.972656 42.222656 19.433594 42.222656 19.0625 42.53125 C 17.765625 43.585938 15.507813 44 14.1875 44 C 12.867188 44 10.640625 43.585938 9.34375 42.53125 C 9.101563 42.324219 8.777344 42.242188 8.46875 42.3125 C 8.316406 42.351563 8.179688 42.425781 8.0625 42.53125 C 7.78125 42.757813 7.445313 42.953125 7.09375 43.125 C 6.914063 42.875 5.847656 41.367188 4.65625 39.21875 C 3.550781 37.230469 2.597656 34.914063 2.25 33 Z M 8.59375 46.28125 C 8.550781 46.289063 8.507813 46.300781 8.46875 46.3125 C 8.316406 46.351563 8.179688 46.425781 8.0625 46.53125 C 6.765625 47.585938 4.507813 48 3.1875 48 C 2.582031 48 2.039063 47.90625 1.40625 47.90625 C 1.046875 47.902344 0.710938 48.089844 0.527344 48.402344 C 0.347656 48.714844 0.347656 49.097656 0.527344 49.410156 C 0.710938 49.722656 1.046875 49.910156 1.40625 49.90625 C 1.773438 49.90625 2.390625 50 3.1875 50 C 4.691406 50 6.875 49.550781 8.6875 48.375 C 10.503906 49.566406 12.675781 50 14.1875 50 C 15.691406 50 17.875 49.550781 19.6875 48.375 C 21.503906 49.566406 23.675781 50 25.1875 50 C 26.691406 50 28.875 49.550781 30.6875 48.375 C 32.503906 49.566406 34.675781 50 36.1875 50 C 37.691406 50 39.875 49.550781 41.6875 48.375 C 43.503906 49.566406 45.675781 50 47.1875 50 C 47.984375 50 48.726563 49.882813 49.375 49.625 C 49.742188 49.515625 50.011719 49.210938 50.078125 48.835938 C 50.140625 48.460938 49.988281 48.082031 49.679688 47.855469 C 49.371094 47.632813 48.960938 47.605469 48.625 47.78125 C 48.273438 47.921875 47.792969 48 47.1875 48 C 45.867188 48 43.640625 47.585938 42.34375 46.53125 C 41.972656 46.222656 41.433594 46.222656 41.0625 46.53125 C 39.765625 47.585938 37.507813 48 36.1875 48 C 34.867188 48 32.640625 47.585938 31.34375 46.53125 C 30.972656 46.222656 30.433594 46.222656 30.0625 46.53125 C 28.765625 47.585938 26.507813 48 25.1875 48 C 23.867188 48 21.640625 47.585938 20.34375 46.53125 C 19.972656 46.222656 19.433594 46.222656 19.0625 46.53125 C 17.765625 47.585938 15.507813 48 14.1875 48 C 12.867188 48 10.640625 47.585938 9.34375 46.53125 C 9.140625 46.347656 8.867188 46.257813 8.59375 46.28125 Z"></path></svg>