<?xml version="1.0" encoding="utf-8"?>
<!-- Svg Vector Icons : http://www.onlinewebfonts.com/icon -->
<!DOCTYPE svg PUBLIC "-//W3C//DTD SVG 1.1//EN" "http://www.w3.org/Graphics/SVG/1.1/DTD/svg11.dtd">
<svg version="1.1" xmlns="http://www.w3.org/2000/svg" xmlns:xlink="http://www.w3.org/1999/xlink" x="0px" y="0px" viewBox="0 0 1000 1000" enable-background="new 0 0 1000 1000" xml:space="preserve">
<metadata> Svg Vector Icons : http://www.onlinewebfonts.com/icon </metadata>
<g><g><path d="M512,500H119.5V399.1c0-8,6.5-14.4,14.4-14.4h311.5c5.5,0,10.4,3.1,12.9,8L512,500z M292.4,240.6V183H191.5v57.6H292.4z M191.5,269.4v100.9h100.9V269.4H191.5L191.5,269.4z M986.8,537.9L915,668C864.3,759.9,767.6,817,662.6,817H157.2c-31,0-58.5-19.8-68.4-49.3L10.8,533.4c-3.1-9.3,3.8-19,13.7-19h951.1C987.7,514.4,994.4,528.5,986.8,537.9z M255,638.3c0-15.4-12.5-28-28-28c-15.4,0-28,12.5-28,28c0,15.4,12.5,28,28,28C242.5,666.3,255,653.8,255,638.3z M370.3,638.3c0-15.4-12.5-28-28-28s-28,12.5-28,28c0,15.4,12.5,28,28,28C357.8,666.3,370.3,653.8,370.3,638.3z M485.6,638.3c0-15.4-12.5-28-28-28c-15.4,0-28,12.5-28,28c0,15.4,12.5,28,28,28C473,666.3,485.6,653.8,485.6,638.3z"/></g><g></g><g></g><g></g><g></g><g></g><g></g><g></g><g></g><g></g><g></g><g></g><g></g><g></g><g></g><g></g></g>
</svg>