<?xml version="1.0" encoding="utf-8"?>
<!-- Svg Vector Icons : http://www.onlinewebfonts.com/icon -->
<!DOCTYPE svg PUBLIC "-//W3C//DTD SVG 1.1//EN" "http://www.w3.org/Graphics/SVG/1.1/DTD/svg11.dtd">
<svg version="1.1" xmlns="http://www.w3.org/2000/svg" xmlns:xlink="http://www.w3.org/1999/xlink" x="0px" y="0px" viewBox="0 0 1000 1000" enable-background="new 0 0 1000 1000" xml:space="preserve">
<metadata> Svg Vector Icons : http://www.onlinewebfonts.com/icon </metadata>
<g><g transform="translate(0.000000,511.000000) scale(0.100000,-0.100000)"><path d="M6313.2,2128.8V1109.6h137.2h137.2v1019.2V3148h-137.2h-137.2V2128.8z"/><path d="M6946.3,2428.7l-103.9-7.8v-656.6v-654.6h137.2h137.2V1776c0,623.3-2,666.4-33.3,662.5C7063.9,2436.5,7001.2,2432.6,6946.3,2428.7z"/><path d="M4690.3,1495.7c-196-198-356.7-364.6-356.7-372.4c0-7.8,362.6-13.7,803.6-13.7h803.6V1482v372.4h-446.9h-446.9L4690.3,1495.7z"/><path d="M3181.1,468.7c-288.1-247-568.4-484.1-623.3-529.2l-96-84.3h2779.3h2781.2l-37.2,64.7c-19.6,33.3-158.8,272.5-309.7,529.2L7401,913.6H5554.7H3706.4L3181.1,468.7z"/><path d="M100-385.9c0-113.7,156.8-456.7,319.5-699.7c331.2-493.9,958.4-1187.7,1509.2-1671.9l194-170.5h3326.1h3328.1l158.8,280.3c321.5,564.5,644.9,1258.3,807.5,1732.6c66.6,194,156.8,503.7,156.8,542.9c0,5.9-2205,11.7-4900,11.7C956.5-360.4,100-364.3,100-385.9z M2638.2-1054.2c64.7-43.1,113.7-160.7,101.9-248.9c-35.3-268.5-386.1-319.5-515.5-72.5c-35.3,70.5-35.3,141.1,3.9,225.4C2299.1-1001.3,2489.2-958.2,2638.2-1054.2z M3847.5-1060.1c139.2-125.4,117.6-364.6-41.2-446.9c-160.7-82.3-382.2,21.6-394,186.2c-9.8,117.6,2,160.7,64.7,227.4C3575.1-985.6,3749.5-970,3847.5-1060.1z M5017.6-1044.5c86.2-60.7,125.4-131.3,125.4-225.4c0-101.9-41.2-174.4-129.3-227.4c-176.4-107.8-405.7,17.7-405.7,221.5C4608-1054.2,4843.2-921,5017.6-1044.5z M6223-1044.5c111.7-62.7,158.8-221.5,100-333.2c-52.9-103.9-139.2-158.8-248.9-158.8c-88.2,0-105.8,7.9-174.4,74.5c-41.2,41.2-80.4,98-86.3,127.4c-33.3,131.3,45.1,270.5,176.4,317.5C6076.1-987.6,6134.8-995.4,6223-1044.5z M7426.5-1040.5c164.6-101.9,156.8-378.3-13.7-466.5c-209.7-107.8-454.7,80.4-394,303.8C7065.8-1028.8,7273.6-944.5,7426.5-1040.5z M8624-1044.5c123.5-86.2,166.6-250.9,92.1-364.6c-109.8-166.6-362.6-168.6-462.5-3.9C8104.6-1171.8,8396.7-883.7,8624-1044.5z"/></g></g>
</svg>